<svg width="45" height="31" viewBox="0 0 45 31" fill="none" xmlns="http://www.w3.org/2000/svg">
<path fill-rule="evenodd" clip-rule="evenodd" d="M26.5827 30.6541C26.5827 30.6541 28.9993 30.6541 28.9993 28.1323C28.9993 25.6105 26.5827 18.0451 14.4996 18.0451C2.41661 18.0451 0 25.6105 0 28.1323C0 30.6541 2.41661 30.6541 2.41661 30.6541H26.5827ZM2.46198 28.3004C2.4507 28.2993 2.43264 28.297 2.40981 28.2931C2.35393 28.2833 2.30216 28.2689 2.26132 28.2533C2.25804 28.2236 2.2555 28.1838 2.2555 28.1323C2.2555 27.4757 2.63533 25.5586 4.31356 23.8074C5.92569 22.125 8.93379 20.3988 14.4996 20.3988C20.0655 20.3988 23.0736 22.125 24.6857 23.8074C26.3639 25.5586 26.7438 27.4757 26.7438 28.1323C26.7438 28.1838 26.7412 28.2236 26.738 28.2533C26.6971 28.2689 26.6453 28.2833 26.5895 28.2931C26.5666 28.297 26.5486 28.2993 26.5373 28.3004H2.46198ZM14.4996 13.1697C15.8242 13.1697 17.0945 12.6206 18.0312 11.6432C18.9678 10.6658 19.494 9.34019 19.494 7.95796C19.494 6.57573 18.9678 5.25011 18.0312 4.27273C17.0945 3.29534 15.8242 2.74625 14.4996 2.74625C13.1751 2.74625 11.9047 3.29534 10.9681 4.27273C10.0315 5.25011 9.50532 6.57573 9.50532 7.95796C9.50532 9.34019 10.0315 10.6658 10.9681 11.6432C11.9047 12.6206 13.1751 13.1697 14.4996 13.1697ZM19.626 13.3075C18.2664 14.7263 16.4224 15.5233 14.4996 15.5233C12.5769 15.5233 10.7328 14.7263 9.37324 13.3075C8.01364 11.8887 7.24982 9.96443 7.24982 7.95796C7.24982 5.9515 8.01364 4.02721 9.37324 2.60843C10.7328 1.18964 12.5769 0.392578 14.4996 0.392578C16.4224 0.392578 18.2664 1.18964 19.626 2.60843C20.9856 4.02721 21.7495 5.9515 21.7495 7.95796C21.7495 9.96443 20.9856 11.8887 19.626 13.3075Z" fill="#1B72F9"/>
<path fill-rule="evenodd" clip-rule="evenodd" d="M44.1258 22.2263C44.1258 24.2112 42.2237 24.2112 42.2237 24.2112H31.4454C31.2206 23.615 30.9306 22.9895 30.5626 22.3586H42.188C42.1968 22.3577 42.2111 22.3559 42.229 22.3528C42.273 22.3452 42.3138 22.3338 42.3459 22.3215C42.3485 22.2981 42.3505 22.2668 42.3505 22.2263C42.3505 21.7095 42.0515 20.2006 40.7306 18.8222C39.4617 17.498 37.0941 16.1393 32.7132 16.1393C29.4913 16.1393 27.3583 16.8743 25.9505 17.7898C25.3875 17.4607 24.7763 17.1558 24.1133 16.8821C25.839 15.4303 28.5456 14.2868 32.7132 14.2868C42.2237 14.2868 44.1258 20.2414 44.1258 22.2263ZM35.4929 9.24785C34.7557 10.0171 33.7558 10.4493 32.7132 10.4493C31.6707 10.4493 30.6708 10.0171 29.9336 9.24785C29.1964 8.47855 28.7822 7.43517 28.7822 6.34723C28.7822 5.25929 29.1964 4.2159 29.9336 3.44661C30.6708 2.67732 31.6707 2.24514 32.7132 2.24514C33.7558 2.24514 34.7557 2.67732 35.4929 3.44661C36.2301 4.2159 36.6442 5.25929 36.6442 6.34723C36.6442 7.43517 36.2301 8.47855 35.4929 9.24785ZM32.7132 12.3019C34.2266 12.3019 35.678 11.6745 36.7482 10.5578C37.8183 9.44109 38.4195 7.9265 38.4195 6.34723C38.4195 4.76796 37.8183 3.25337 36.7482 2.13666C35.678 1.01994 34.2266 0.392578 32.7132 0.392578C31.1998 0.392578 29.7484 1.01994 28.6783 2.13666C27.6082 3.25337 27.007 4.76796 27.007 6.34723C27.007 7.9265 27.6082 9.44109 28.6783 10.5578C29.7484 11.6745 31.1998 12.3019 32.7132 12.3019Z" fill="#1B72F9"/>
</svg>
