<svg width="37" height="33" viewBox="0 0 37 33" fill="none" xmlns="http://www.w3.org/2000/svg">
<path d="M5.94423 10.2007C2.6628 10.2007 0 12.8703 0 16.1449C0 19.4195 2.6628 22.0891 5.94423 22.0891C9.22566 22.0891 11.8885 19.4195 11.8885 16.1449C11.8885 12.8703 9.22566 10.2007 5.94423 10.2007ZM8.83565 12.5942L6.53596 14.843C6.36113 14.7641 6.15941 14.7115 5.94423 14.7115C5.72905 14.7115 5.54078 14.7641 5.3525 14.843L3.05281 12.5942C3.84627 11.9366 4.84145 11.5289 5.94423 11.5289C7.04701 11.5289 8.04219 11.9366 8.83565 12.5942ZM1.3583 16.1449C1.3583 15.0797 1.73485 14.1197 2.32659 13.3438L4.61283 15.5794C4.53214 15.7504 4.47835 15.9477 4.47835 16.1581C4.47835 16.3685 4.53214 16.5526 4.61283 16.7367L2.32659 18.9724C1.73485 18.1702 1.3583 17.2101 1.3583 16.1449ZM3.05281 19.6957L5.3525 17.4469C5.52733 17.5258 5.72905 17.5784 5.94423 17.5784C6.15941 17.5784 6.34769 17.5258 6.53596 17.4469L8.83565 19.6957C8.04219 20.3532 7.04701 20.7609 5.94423 20.7609C4.84145 20.7609 3.84627 20.3532 3.05281 19.6957ZM9.56187 18.9592L7.27563 16.7236C7.35632 16.5526 7.41012 16.3553 7.41012 16.1449C7.41012 15.9345 7.35632 15.7504 7.27563 15.5663L9.56187 13.3306C10.1671 14.1065 10.5302 15.0797 10.5302 16.1318C10.5302 17.2101 10.1536 18.1702 9.56187 18.9592Z" fill="#1B72F9"/>
<path d="M8.23047 16.1449C8.23047 17.4076 7.20689 18.4312 5.94423 18.4312C4.68157 18.4312 3.65799 17.4076 3.65799 16.1449C3.65799 14.8823 4.68157 13.8587 5.94423 13.8587C7.20689 13.8587 8.23047 14.8823 8.23047 16.1449Z" fill="#1B72F9"/>
<path fill-rule="evenodd" clip-rule="evenodd" d="M34.4029 32.897C34.4029 32.897 36.7445 32.897 36.7445 30.3031C36.7445 27.7093 34.4029 19.9277 22.6945 19.9277C10.9862 19.9277 8.64453 27.7093 8.64453 30.3031C8.64453 32.897 10.9862 32.897 10.9862 32.897H34.4029ZM11.0302 30.476C11.0192 30.4748 11.0017 30.4725 10.9796 30.4685C10.9255 30.4585 10.8753 30.4436 10.8357 30.4276C10.8326 30.397 10.8301 30.3561 10.8301 30.3031C10.8301 29.6278 11.1981 27.6559 12.8243 25.8546C14.3865 24.1242 17.3013 22.3487 22.6945 22.3487C28.0878 22.3487 31.0026 24.1242 32.5647 25.8546C34.1909 27.6559 34.559 29.6278 34.559 30.3031C34.559 30.3561 34.5565 30.397 34.5533 30.4276C34.5138 30.4436 34.4636 30.4585 34.4094 30.4685C34.3873 30.4725 34.3698 30.4748 34.3589 30.476H11.0302Z" fill="#1B72F9"/>
<path d="M28.8856 5.19028L28.8857 5.19026C27.6503 2.99357 25.4297 1.60928 22.9799 1.60928V1.44717C20.4693 1.44949 18.2018 2.86917 16.9411 5.11079C16.9226 5.14204 16.9127 5.17765 16.9123 5.21398C16.912 5.2503 16.9213 5.28605 16.9393 5.31762C16.9573 5.34918 16.9833 5.37543 17.0147 5.39369C17.0461 5.41195 17.0818 5.42158 17.1181 5.42158M28.8856 5.19028L22.9861 1.44717C25.4967 1.44949 27.7663 2.86917 29.027 5.11079C29.0455 5.14204 29.0554 5.17765 29.0557 5.21398C29.0561 5.2503 29.0468 5.28605 29.0288 5.31762C29.0108 5.34918 28.9848 5.37543 28.9534 5.39369C28.922 5.41195 28.8863 5.42158 28.85 5.42158M28.8856 5.19028L28.8875 5.19347C28.8915 5.20008 28.8936 5.20765 28.8936 5.21539C28.8937 5.22311 28.8917 5.23069 28.8879 5.23739C28.8841 5.2441 28.8786 5.24967 28.8719 5.25354C28.8652 5.25742 28.8577 5.25946 28.85 5.25947V5.42158M28.8856 5.19028L28.8499 5.25947M17.1181 5.42158H28.85M17.1181 5.42158L17.1181 5.25947H28.8499M17.1181 5.42158L28.8499 5.25947M28.85 5.42158L28.8499 5.25947M15.3923 5.74408L15.3923 5.74409C16.6172 2.56352 19.5503 0.313317 22.982 0.311517C22.9827 0.311517 22.9834 0.311518 22.984 0.311518L15.3923 5.74408ZM15.3923 5.74408L15.3917 5.74553C15.3576 5.8366 15.3461 5.93458 15.3581 6.03105C15.3701 6.12752 15.4052 6.21967 15.4606 6.29964C15.5159 6.37961 15.5898 6.44496 15.6758 6.49017C15.7619 6.53539 15.8577 6.5591 15.9549 6.55929H15.9552H30.0149L30.0153 6.55929C30.1125 6.5591 30.2082 6.53539 30.2943 6.49017C30.3804 6.44495 30.4542 6.37959 30.5095 6.29964L30.3762 6.20739L30.5095 6.29964C30.5649 6.2197 30.6 6.12756 30.612 6.03105C30.624 5.93458 30.6125 5.8366 30.5784 5.74553L30.5779 5.74409C29.3529 2.5635 26.4198 0.313316 22.9861 0.311517L15.3923 5.74408ZM17.0824 5.19026C18.3178 2.99352 20.5364 1.60928 22.9861 1.60928L17.1181 5.25947C17.1104 5.25946 17.1028 5.25742 17.0962 5.25354C17.0895 5.24967 17.084 5.2441 17.0802 5.23738C17.0763 5.23069 17.0744 5.22311 17.0744 5.21539C17.0745 5.20765 17.0766 5.20008 17.0805 5.19347L17.0806 5.19349L17.0824 5.19026Z" fill="#1B72F9" stroke="#1B72F9" stroke-width="0.324231"/>
<path d="M29.2871 7.43163L29.2879 7.43163L30.5903 7.43576C30.5904 7.43576 30.5905 7.43576 30.5906 7.43576L30.5908 7.43576L30.5903 7.59787L29.2871 7.43163ZM29.2871 7.43163C29.1596 7.43189 29.0364 7.47716 28.939 7.55944L29.0437 7.68324M29.2871 7.43163L29.0437 7.68324M29.0437 7.68324L28.939 7.55944C28.8417 7.64171 28.7766 7.75572 28.7551 7.88135L28.755 7.8818M29.0437 7.68324L28.755 7.8818M28.755 7.8818L28.5904 8.86151L28.588 8.8757L28.5881 8.89009C28.5904 9.10798 28.5063 9.31788 28.3542 9.47389C28.2023 9.62963 27.995 9.71897 27.7775 9.72244M28.755 7.8818L27.7775 9.72244M27.7775 9.72244H25.2441C25.1365 9.72097 25.0302 9.69839 24.9314 9.65597C24.8322 9.61343 24.7423 9.55176 24.667 9.47449C24.5917 9.39724 24.5323 9.30589 24.4922 9.20566C24.4522 9.10543 24.4323 8.99833 24.4336 8.89043L24.4338 8.8757L24.4314 8.86118L24.2646 7.88147L24.2646 7.88135C24.2431 7.75572 24.178 7.64171 24.0807 7.55944L23.9761 7.68312L24.0807 7.55944C23.9833 7.47717 23.8601 7.43189 23.7326 7.43163H23.7323L22.5591 7.43163L22.5588 7.43163C22.4313 7.43189 22.308 7.47717 22.2107 7.55944C22.1134 7.64171 22.0482 7.75572 22.0268 7.88135L22.0267 7.88147L21.86 8.86118L21.8575 8.8757L21.8577 8.89043C21.8591 8.99835 21.8392 9.10545 21.7992 9.20566L21.9497 9.2658L21.7992 9.20566C21.7591 9.30587 21.6997 9.39723 21.6244 9.47449C21.549 9.55176 21.4592 9.61343 21.36 9.65597C21.2611 9.69839 21.1549 9.72097 21.0473 9.72244H18.4994C18.282 9.71897 18.0747 9.62963 17.9228 9.47389C17.7707 9.31788 17.6865 9.10798 17.6888 8.89009L17.689 8.8757L17.6866 8.86151L17.5219 7.88179L17.5219 7.88135C17.5004 7.75572 17.4352 7.64171 17.3379 7.55944C17.2406 7.47717 17.1173 7.43189 16.9899 7.43163H16.9895L15.5488 7.43163L15.5486 7.43163C15.4139 7.43179 15.2842 7.48218 15.1847 7.57297C15.0852 7.66373 15.0231 7.78835 15.0107 7.92248L15.1721 7.93746L27.7775 9.72244ZM18.4826 10.977V10.977H18.4838L21.034 10.977L21.035 10.977C21.5688 10.9734 22.0807 10.7647 22.4647 10.394C22.8462 10.0256 23.0724 9.52551 23.0973 8.99604L23.1313 8.79384L23.1653 8.99604C23.1901 9.5255 23.4163 10.0256 23.7978 10.394C24.1819 10.7647 24.6938 10.9734 25.2275 10.977H25.2286L27.7787 10.977L27.78 10.977C28.3133 10.9729 28.8247 10.7639 29.2082 10.3932C29.4185 10.19 29.5815 9.94684 29.6895 9.68077C29.2484 13.0839 26.4053 15.7119 22.981 15.7119C19.2395 15.7119 16.1815 12.5676 16.2143 8.70821L16.2346 8.68825H16.3694L16.4226 8.9964C16.4475 9.52535 16.6733 10.025 17.0543 10.3932C17.4379 10.7639 17.9492 10.9729 18.4826 10.977Z" fill="#1B72F9" stroke="#1B72F9" stroke-width="0.324231"/>
</svg>
